
Fabulous new fashions, sparkling musical "Glamicures" and delightful new "Do's" have Strawberry and her friends "Puttin' on the Glitz"! But, all that dazzles quickly unravels with misunderstanding... until the girls find creative and kind ways to be honest with their feelings... and with their friends. It's heart-to-heart makeover magic... as the girls learn that nothing looks as beautiful as friendship feels.

Format;AVI

File Size:905mb

Video
ID : 0
Format : MPEG-4 Visual
Format profile : Advanced Simple@L5
Format settings, BVOP : Yes
Format settings, QPel : No
Format settings, GMC : No warppoints
Format settings, Matrix : Custom
Codec ID : XVID
Codec ID/Hint : XviD
Duration : 1h 6mn
Bit rate : 1 716 Kbps
Width : 700 pixels
Height : 384 pixels
Display aspect ratio : 16:9
Frame rate : 29.970 fps
Color space : YUV
Chroma subsampling : 4:2:0
Bit depth : 8 bits
Scan type : Progressive
Bits/(Pixel*Frame) : 0.213
Stream size : 812 MiB (90%)
Writing library : XviD 1.2.1 (UTC 2008-12-04)

Audio
ID : 1
Format : AC-3
Format/Info : Audio Coding 3
Format profile : Dolby Digital
Mode extension : CM (complete main)
Codec ID : 2000
Duration : 1h 6mn
Bit rate mode : Constant
Bit rate : 192 Kbps
Channel(s) : 2 channels
Channel positions : Front: L R
Sampling rate : 48.0 KHz
Bit depth : 16 bits
Stream size : 90.8 MiB (10%)
Alignment : Aligned on interleaves
Interleave, duration : 480 ms (14.38 video frames)
Interleave, preload duration : 960 ms

 
http://www.amazon.com/Strawberry-Shortcake-Puttin-Glitz/dp/B004JIGEFY/:



Duration:1:06

Release Date:2011

Language:English
 
http://www.grinshare.com/img/6UIMR9.png
 
http://www.grinshare.com/img/4CYGO0.png
 
http://www.grinshare.com/img/IMSINE.png
 
http://www.grinshare.com/img/Q83YG7.png
 
http://www.grinshare.com/img/41J4BQ.png